<svg width="394" height="82" viewBox="0 0 394 82" fill="none" xmlns="http://www.w3.org/2000/svg">
<rect width="394" height="82" rx="9" fill="url(#paint0_linear_1_3)"/>
<mask id="mask0_1_3" style="mask-type:alpha" maskUnits="userSpaceOnUse" x="0" y="0" width="394" height="82">
<rect width="394" height="82" rx="9" fill="url(#paint1_linear_1_3)"/>
</mask>
<g mask="url(#mask0_1_3)">
<ellipse cx="196.527" cy="3" rx="215.527" ry="35" fill="url(#paint2_radial_1_3)" fill-opacity="0.6"/>
<path d="M123.388 53.2734L123.974 47.5312C126.505 48.9062 128.919 49.5938 131.216 49.5938C132.7 49.5938 133.997 49.2266 135.106 48.4922C136.231 47.7578 136.794 46.6797 136.794 45.2578C136.794 43.8203 136.317 42.7969 135.364 42.1875C134.427 41.5781 132.716 40.7422 130.231 39.6797C127.747 38.6016 125.88 37.4062 124.63 36.0938C123.396 34.7656 122.778 32.875 122.778 30.4219C122.778 28.375 123.294 26.6719 124.325 25.3125C125.372 23.9375 126.747 22.9297 128.45 22.2891C130.169 21.6328 132.036 21.3047 134.052 21.3047C136.755 21.3047 139.302 21.7266 141.692 22.5703L141.153 27.8438C138.825 26.7812 136.614 26.25 134.521 26.25C133.146 26.25 131.942 26.5625 130.911 27.1875C129.896 27.7969 129.388 28.7656 129.388 30.0938C129.388 31.3594 129.771 32.2266 130.536 32.6953C131.302 33.1641 133.036 34 135.739 35.2031C138.458 36.3906 140.458 37.6641 141.739 39.0234C143.021 40.3672 143.661 42.2578 143.661 44.6953C143.661 46.4297 143.341 47.9297 142.7 49.1953C142.06 50.4609 141.169 51.5078 140.028 52.3359C138.903 53.1484 137.606 53.75 136.138 54.1406C134.685 54.5312 133.138 54.7266 131.497 54.7266C128.903 54.7266 126.2 54.2422 123.388 53.2734ZM168.177 47.6719L168.271 52.9922C165.755 54.0859 163.036 54.6328 160.114 54.6328C158.161 54.6328 156.419 54.3594 154.888 53.8125C153.372 53.25 152.075 52.4297 150.997 51.3516C149.919 50.2578 149.099 48.9453 148.536 47.4141C147.974 45.8672 147.692 44.1094 147.692 42.1406C147.692 40.3281 147.95 38.6641 148.466 37.1484C148.997 35.6172 149.755 34.2969 150.739 33.1875C151.724 32.0625 152.935 31.1875 154.372 30.5625C155.825 29.9375 157.466 29.625 159.294 29.625C161.075 29.625 162.646 29.9453 164.005 30.5859C165.364 31.2266 166.466 32.1094 167.31 33.2344C168.169 34.3594 168.81 35.6641 169.231 37.1484C169.653 38.6172 169.864 40.2344 169.864 42C169.864 42.3125 169.856 42.5469 169.841 42.7031C169.825 42.8594 169.81 43.0547 169.794 43.2891C169.778 43.5234 169.755 43.7969 169.724 44.1094H153.739C153.896 45.9844 154.622 47.4453 155.919 48.4922C157.231 49.5391 158.856 50.0625 160.794 50.0625C162.981 50.0625 165.442 49.2656 168.177 47.6719ZM164.005 39.8438C163.974 38.7812 163.778 37.8047 163.419 36.9141C163.075 36.0234 162.536 35.3047 161.802 34.7578C161.083 34.2109 160.185 33.9375 159.106 33.9375C157.997 33.9375 157.044 34.2109 156.247 34.7578C155.466 35.2891 154.856 36 154.419 36.8906C153.997 37.7812 153.739 38.7656 153.646 39.8438H164.005ZM194.591 54H189.106L189.013 50.4375C188.278 51.7031 187.247 52.6797 185.919 53.3672C184.606 54.0391 183.177 54.375 181.63 54.375C180.052 54.375 178.638 54.1016 177.388 53.5547C176.153 53.0078 175.177 52.1797 174.458 51.0703C173.739 49.9453 173.38 48.5859 173.38 46.9922C173.38 44.0234 174.544 41.9922 176.872 40.8984C179.2 39.8047 182.036 39.2578 185.38 39.2578C185.864 39.2578 186.177 39.2656 186.317 39.2812C186.458 39.2812 186.771 39.2969 187.255 39.3281C187.739 39.3438 188.231 39.3672 188.731 39.3984C188.731 37.6328 188.302 36.3203 187.442 35.4609C186.583 34.6016 185.255 34.1719 183.458 34.1719C180.739 34.1719 178.286 35.0391 176.099 36.7734L175.911 31.4297C178.458 30.3516 181.216 29.8125 184.185 29.8125C185.294 29.8125 186.396 29.9219 187.489 30.1406C188.583 30.3594 189.591 30.7266 190.513 31.2422C191.45 31.7422 192.224 32.4141 192.833 33.2578C193.458 34.1016 193.864 35.0703 194.052 36.1641C194.255 37.2422 194.356 38.5312 194.356 40.0312C194.356 41.5781 194.356 43.1328 194.356 44.6953C194.372 46.2578 194.388 47.6875 194.403 48.9844C194.435 50.2656 194.497 51.9375 194.591 54ZM188.825 43.1953C188.669 43.1641 188.427 43.1484 188.099 43.1484H187.349C186.005 43.1484 184.771 43.2266 183.646 43.3828C182.536 43.5234 181.56 43.8984 180.716 44.5078C179.888 45.1016 179.474 45.9766 179.474 47.1328C179.474 48.0703 179.841 48.8203 180.575 49.3828C181.325 49.9297 182.192 50.2031 183.177 50.2031C185.036 50.2031 186.442 49.5156 187.396 48.1406C188.349 46.7656 188.825 45.1172 188.825 43.1953ZM206.919 54H200.778V37.3828C200.7 33.4297 200.638 31.0469 200.591 30.2344H206.169L206.31 36.2344C206.841 34.3594 207.646 32.8594 208.724 31.7344C209.817 30.6094 211.239 30.0469 212.989 30.0469C213.521 30.0469 214.122 30.125 214.794 30.2812V36.0469C213.981 35.8281 213.263 35.7188 212.638 35.7188C211.185 35.7188 210.028 36.1016 209.169 36.8672C208.31 37.6328 207.716 38.6172 207.388 39.8203C207.075 41.0078 206.919 42.3125 206.919 43.7344V44.2031V54ZM234.669 48.0938L235.021 53.2734C232.958 53.8828 231.114 54.1875 229.489 54.1875C227.677 54.1875 226.013 53.9141 224.497 53.3672C222.981 52.8047 221.677 51.9922 220.583 50.9297C219.505 49.8672 218.677 48.5781 218.099 47.0625C217.536 45.5312 217.255 43.8438 217.255 42C217.255 39.6562 217.755 37.5781 218.755 35.7656C219.771 33.9531 221.192 32.5469 223.021 31.5469C224.864 30.5469 226.942 30.0469 229.255 30.0469C230.974 30.0469 232.716 30.3047 234.481 30.8203L234.013 35.7656C232.606 35.2188 231.341 34.9453 230.216 34.9453C228.935 34.9453 227.786 35.2656 226.771 35.9062C225.755 36.5312 224.974 37.375 224.427 38.4375C223.896 39.4844 223.63 40.6562 223.63 41.9531C223.63 44.0938 224.255 45.8125 225.505 47.1094C226.755 48.4062 228.435 49.0547 230.544 49.0547C231.888 49.0547 233.263 48.7344 234.669 48.0938ZM261.153 54H255.013V42.4688C255.013 40.1875 254.763 38.3672 254.263 37.0078C253.778 35.6328 252.622 34.9453 250.794 34.9453C248.825 34.9453 247.442 35.7578 246.646 37.3828C245.849 38.9922 245.45 40.8828 245.45 43.0547V44.25V54H239.31V19.4297H245.45V33.6094C246.341 32.3281 247.411 31.375 248.661 30.75C249.911 30.125 251.341 29.8125 252.95 29.8125C254.622 29.8125 255.997 30.0859 257.075 30.6328C258.169 31.1641 259.005 31.8906 259.583 32.8125C260.177 33.7344 260.583 34.8125 260.802 36.0469C261.036 37.2656 261.153 38.7031 261.153 40.3594V54Z" fill="white"/>
</g>
<defs>
<linearGradient id="paint0_linear_1_3" x1="197" y1="0" x2="197" y2="82" gradientUnits="userSpaceOnUse">
<stop stop-color="#1C0FB5"/>
<stop offset="1" stop-color="#01002D"/>
</linearGradient>
<linearGradient id="paint1_linear_1_3" x1="197" y1="0" x2="197" y2="82" gradientUnits="userSpaceOnUse">
<stop stop-color="#3120F5"/>
<stop offset="1" stop-color="#070643"/>
</linearGradient>
<radialGradient id="paint2_radial_1_3" cx="0" cy="0" r="1" gradientUnits="userSpaceOnUse" gradientTransform="translate(196.527 -10.0667) rotate(90) scale(48.0667 446.352)">
<stop stop-color="white" stop-opacity="0.8"/>
<stop offset="1" stop-color="white" stop-opacity="0.04"/>
</radialGradient>
</defs>
</svg>
