<svg width="319" height="82" viewBox="0 0 319 82" fill="none" xmlns="http://www.w3.org/2000/svg">
<rect width="319" height="82" rx="9" fill="url(#paint0_linear_16_52)"/>
<mask id="mask0_16_52" style="mask-type:alpha" maskUnits="userSpaceOnUse" x="0" y="0" width="319" height="82">
<rect width="319" height="82" rx="9" fill="url(#paint1_linear_16_52)"/>
</mask>
<g mask="url(#mask0_16_52)">
<ellipse cx="155.5" cy="3" rx="174.5" ry="35" fill="url(#paint2_radial_16_52)" fill-opacity="0.6"/>
<path d="M61.4609 54H53.6797L43.1797 34.6641C42.5078 33.4453 41.625 31.5547 40.5312 28.9922C41.0156 32.3203 41.2578 35.0703 41.2578 37.2422V54H35.1172V21.9844H42.7344L53.4922 41.3672C53.8672 42.0547 54.1094 42.5469 54.2188 42.8438C54.3438 43.1406 54.5703 43.7031 54.8984 44.5312C55.2266 45.3594 55.5625 46.1953 55.9062 47.0391C55.5156 44.8047 55.3203 42.1953 55.3203 39.2109V21.9844H61.4609V54ZM87.5234 47.6719L87.6172 52.9922C85.1016 54.0859 82.3828 54.6328 79.4609 54.6328C77.5078 54.6328 75.7656 54.3594 74.2344 53.8125C72.7188 53.25 71.4219 52.4297 70.3438 51.3516C69.2656 50.2578 68.4453 48.9453 67.8828 47.4141C67.3203 45.8672 67.0391 44.1094 67.0391 42.1406C67.0391 40.3281 67.2969 38.6641 67.8125 37.1484C68.3438 35.6172 69.1016 34.2969 70.0859 33.1875C71.0703 32.0625 72.2812 31.1875 73.7188 30.5625C75.1719 29.9375 76.8125 29.625 78.6406 29.625C80.4219 29.625 81.9922 29.9453 83.3516 30.5859C84.7109 31.2266 85.8125 32.1094 86.6562 33.2344C87.5156 34.3594 88.1562 35.6641 88.5781 37.1484C89 38.6172 89.2109 40.2344 89.2109 42C89.2109 42.3125 89.2031 42.5469 89.1875 42.7031C89.1719 42.8594 89.1562 43.0547 89.1406 43.2891C89.125 43.5234 89.1016 43.7969 89.0703 44.1094H73.0859C73.2422 45.9844 73.9688 47.4453 75.2656 48.4922C76.5781 49.5391 78.2031 50.0625 80.1406 50.0625C82.3281 50.0625 84.7891 49.2656 87.5234 47.6719ZM83.3516 39.8438C83.3203 38.7812 83.125 37.8047 82.7656 36.9141C82.4219 36.0234 81.8828 35.3047 81.1484 34.7578C80.4297 34.2109 79.5312 33.9375 78.4531 33.9375C77.3438 33.9375 76.3906 34.2109 75.5938 34.7578C74.8125 35.2891 74.2031 36 73.7656 36.8906C73.3438 37.7812 73.0859 38.7656 72.9922 39.8438H83.3516ZM131.516 30.2344L124.156 54H117.008L114.031 44.7891C113.359 42.6016 112.852 40.8516 112.508 39.5391C112.164 38.2109 111.891 36.7422 111.688 35.1328C111.5 36.1953 111.305 37.1641 111.102 38.0391C110.898 38.8984 110.648 39.8984 110.352 41.0391C110.055 42.1797 109.781 43.25 109.531 44.25L106.555 54H99.4766L91.4141 30.2344H97.9062L100.695 38.7891C101.977 42.7578 102.836 46.2266 103.273 49.1953C103.523 47.5078 103.812 45.9453 104.141 44.5078C104.484 43.0703 104.898 41.5156 105.383 39.8438L108.219 30.2344H115.32L118.695 40.9453C119.648 43.8516 120.305 46.5703 120.664 49.1016C121.023 46.4766 121.625 43.7266 122.469 40.8516L125.562 30.2344H131.516ZM134.07 53.3672L134.352 48.1875C136.539 49.3125 138.555 49.875 140.398 49.875C141.414 49.875 142.375 49.6562 143.281 49.2188C144.188 48.7812 144.641 48.1016 144.641 47.1797C144.641 46.3828 143.992 45.7031 142.695 45.1406C141.398 44.5781 140.094 44.0234 138.781 43.4766C137.484 42.9297 136.359 42.1641 135.406 41.1797C134.453 40.1953 133.977 38.8203 133.977 37.0547C133.977 35.3672 134.469 33.9844 135.453 32.9062C136.453 31.8281 137.719 31.0469 139.25 30.5625C140.781 30.0625 142.367 29.8125 144.008 29.8125C145.742 29.8125 147.695 30.1172 149.867 30.7266L149.422 35.3203C147.516 34.7109 145.836 34.4062 144.383 34.4062C143.32 34.4062 142.336 34.5859 141.43 34.9453C140.523 35.3047 140.07 35.9297 140.07 36.8203C140.07 37.5859 140.688 38.2266 141.922 38.7422C143.172 39.2422 144.477 39.75 145.836 40.2656C147.211 40.7656 148.383 41.5234 149.352 42.5391C150.336 43.5391 150.828 44.9766 150.828 46.8516C150.828 48.5547 150.352 49.9766 149.398 51.1172C148.461 52.2578 147.242 53.0938 145.742 53.625C144.242 54.1562 142.656 54.4219 140.984 54.4219C139.078 54.4219 136.773 54.0703 134.07 53.3672ZM162.195 63.75H156.031V37.1484C156.031 34.4297 155.953 32.1094 155.797 30.1875H161.703L161.797 33.9375C163.625 31.1875 166.219 29.8125 169.578 29.8125C171.203 29.8125 172.617 30.1406 173.82 30.7969C175.039 31.4531 176.039 32.3516 176.82 33.4922C177.617 34.6172 178.203 35.9062 178.578 37.3594C178.969 38.7969 179.164 40.2812 179.164 41.8125C179.164 44.0781 178.828 46.1562 178.156 48.0469C177.5 49.9375 176.43 51.4688 174.945 52.6406C173.461 53.7969 171.578 54.375 169.297 54.375C167.812 54.375 166.422 54.0547 165.125 53.4141C163.828 52.7734 162.812 51.8516 162.078 50.6484C162.156 51.4453 162.195 52.6562 162.195 54.2812V63.75ZM172.789 42.1875C172.789 40.9219 172.625 39.75 172.297 38.6719C171.984 37.5938 171.445 36.7031 170.68 36C169.93 35.2969 168.922 34.9453 167.656 34.9453C166.422 34.9453 165.391 35.3047 164.562 36.0234C163.734 36.7266 163.133 37.6406 162.758 38.7656C162.383 39.875 162.195 41.0312 162.195 42.2344C162.195 44.2031 162.617 45.9062 163.461 47.3438C164.32 48.7656 165.672 49.4766 167.516 49.4766C168.719 49.4766 169.711 49.1172 170.492 48.3984C171.273 47.6641 171.852 46.7344 172.227 45.6094C172.602 44.4688 172.789 43.3281 172.789 42.1875ZM203.891 54H198.406L198.312 50.4375C197.578 51.7031 196.547 52.6797 195.219 53.3672C193.906 54.0391 192.477 54.375 190.93 54.375C189.352 54.375 187.938 54.1016 186.688 53.5547C185.453 53.0078 184.477 52.1797 183.758 51.0703C183.039 49.9453 182.68 48.5859 182.68 46.9922C182.68 44.0234 183.844 41.9922 186.172 40.8984C188.5 39.8047 191.336 39.2578 194.68 39.2578C195.164 39.2578 195.477 39.2656 195.617 39.2812C195.758 39.2812 196.07 39.2969 196.555 39.3281C197.039 39.3438 197.531 39.3672 198.031 39.3984C198.031 37.6328 197.602 36.3203 196.742 35.4609C195.883 34.6016 194.555 34.1719 192.758 34.1719C190.039 34.1719 187.586 35.0391 185.398 36.7734L185.211 31.4297C187.758 30.3516 190.516 29.8125 193.484 29.8125C194.594 29.8125 195.695 29.9219 196.789 30.1406C197.883 30.3594 198.891 30.7266 199.812 31.2422C200.75 31.7422 201.523 32.4141 202.133 33.2578C202.758 34.1016 203.164 35.0703 203.352 36.1641C203.555 37.2422 203.656 38.5312 203.656 40.0312C203.656 41.5781 203.656 43.1328 203.656 44.6953C203.672 46.2578 203.688 47.6875 203.703 48.9844C203.734 50.2656 203.797 51.9375 203.891 54ZM198.125 43.1953C197.969 43.1641 197.727 43.1484 197.398 43.1484H196.648C195.305 43.1484 194.07 43.2266 192.945 43.3828C191.836 43.5234 190.859 43.8984 190.016 44.5078C189.188 45.1016 188.773 45.9766 188.773 47.1328C188.773 48.0703 189.141 48.8203 189.875 49.3828C190.625 49.9297 191.492 50.2031 192.477 50.2031C194.336 50.2031 195.742 49.5156 196.695 48.1406C197.648 46.7656 198.125 45.1172 198.125 43.1953ZM216.289 63.75H210.125V37.1484C210.125 34.4297 210.047 32.1094 209.891 30.1875H215.797L215.891 33.9375C217.719 31.1875 220.312 29.8125 223.672 29.8125C225.297 29.8125 226.711 30.1406 227.914 30.7969C229.133 31.4531 230.133 32.3516 230.914 33.4922C231.711 34.6172 232.297 35.9062 232.672 37.3594C233.062 38.7969 233.258 40.2812 233.258 41.8125C233.258 44.0781 232.922 46.1562 232.25 48.0469C231.594 49.9375 230.523 51.4688 229.039 52.6406C227.555 53.7969 225.672 54.375 223.391 54.375C221.906 54.375 220.516 54.0547 219.219 53.4141C217.922 52.7734 216.906 51.8516 216.172 50.6484C216.25 51.4453 216.289 52.6562 216.289 54.2812V63.75ZM226.883 42.1875C226.883 40.9219 226.719 39.75 226.391 38.6719C226.078 37.5938 225.539 36.7031 224.773 36C224.023 35.2969 223.016 34.9453 221.75 34.9453C220.516 34.9453 219.484 35.3047 218.656 36.0234C217.828 36.7266 217.227 37.6406 216.852 38.7656C216.477 39.875 216.289 41.0312 216.289 42.2344C216.289 44.2031 216.711 45.9062 217.555 47.3438C218.414 48.7656 219.766 49.4766 221.609 49.4766C222.812 49.4766 223.805 49.1172 224.586 48.3984C225.367 47.6641 225.945 46.7344 226.32 45.6094C226.695 44.4688 226.883 43.3281 226.883 42.1875ZM257.258 47.6719L257.352 52.9922C254.836 54.0859 252.117 54.6328 249.195 54.6328C247.242 54.6328 245.5 54.3594 243.969 53.8125C242.453 53.25 241.156 52.4297 240.078 51.3516C239 50.2578 238.18 48.9453 237.617 47.4141C237.055 45.8672 236.773 44.1094 236.773 42.1406C236.773 40.3281 237.031 38.6641 237.547 37.1484C238.078 35.6172 238.836 34.2969 239.82 33.1875C240.805 32.0625 242.016 31.1875 243.453 30.5625C244.906 29.9375 246.547 29.625 248.375 29.625C250.156 29.625 251.727 29.9453 253.086 30.5859C254.445 31.2266 255.547 32.1094 256.391 33.2344C257.25 34.3594 257.891 35.6641 258.312 37.1484C258.734 38.6172 258.945 40.2344 258.945 42C258.945 42.3125 258.938 42.5469 258.922 42.7031C258.906 42.8594 258.891 43.0547 258.875 43.2891C258.859 43.5234 258.836 43.7969 258.805 44.1094H242.82C242.977 45.9844 243.703 47.4453 245 48.4922C246.312 49.5391 247.938 50.0625 249.875 50.0625C252.062 50.0625 254.523 49.2656 257.258 47.6719ZM253.086 39.8438C253.055 38.7812 252.859 37.8047 252.5 36.9141C252.156 36.0234 251.617 35.3047 250.883 34.7578C250.164 34.2109 249.266 33.9375 248.188 33.9375C247.078 33.9375 246.125 34.2109 245.328 34.7578C244.547 35.2891 243.938 36 243.5 36.8906C243.078 37.7812 242.82 38.7656 242.727 39.8438H253.086ZM270.172 54H264.031V37.3828C263.953 33.4297 263.891 31.0469 263.844 30.2344H269.422L269.562 36.2344C270.094 34.3594 270.898 32.8594 271.977 31.7344C273.07 30.6094 274.492 30.0469 276.242 30.0469C276.773 30.0469 277.375 30.125 278.047 30.2812V36.0469C277.234 35.8281 276.516 35.7188 275.891 35.7188C274.438 35.7188 273.281 36.1016 272.422 36.8672C271.562 37.6328 270.969 38.6172 270.641 39.8203C270.328 41.0078 270.172 42.3125 270.172 43.7344V44.2031V54Z" fill="white"/>
</g>
<defs>
<linearGradient id="paint0_linear_16_52" x1="159.5" y1="0" x2="159.5" y2="82" gradientUnits="userSpaceOnUse">
<stop stop-color="#1C0FB5"/>
<stop offset="1" stop-color="#01002D"/>
</linearGradient>
<linearGradient id="paint1_linear_16_52" x1="159.5" y1="0" x2="159.5" y2="82" gradientUnits="userSpaceOnUse">
<stop stop-color="#3120F5"/>
<stop offset="1" stop-color="#070643"/>
</linearGradient>
<radialGradient id="paint2_radial_16_52" cx="0" cy="0" r="1" gradientUnits="userSpaceOnUse" gradientTransform="translate(155.5 -10.0667) rotate(90) scale(48.0667 361.387)">
<stop stop-color="white" stop-opacity="0.8"/>
<stop offset="1" stop-color="white" stop-opacity="0.04"/>
</radialGradient>
</defs>
</svg>
