<svg width="334" height="89" viewBox="0 0 334 89" fill="none" xmlns="http://www.w3.org/2000/svg">
<rect x="42.3728" y="0.246826" width="251.686" height="88.2468" rx="9" fill="url(#paint0_linear_23_142)"/>
<path d="M139.406 60.2464V67.2152H114.125V24.5277H122.75V60.2464H139.406ZM152.844 67.2152H144.656V35.5277H152.844V67.2152ZM152.969 29.7777H144.531V22.0277H152.969V29.7777ZM190.531 67.2152H180.156L171.969 55.6214C170.99 54.2256 170.052 52.7152 169.156 51.0902C169.281 52.4235 169.344 53.8089 169.344 55.2464V67.2152H161.156V21.1214H169.344V42.4964C169.344 44.5798 169.281 46.6735 169.156 48.7777C170.177 47.2152 171.073 45.9548 171.844 44.9964L179.469 35.5277H189L177.219 49.6839L190.531 67.2152ZM220.375 58.7777L220.5 65.8714C217.146 67.3298 213.521 68.0589 209.625 68.0589C207.021 68.0589 204.698 67.6943 202.656 66.9652C200.635 66.2152 198.906 65.1214 197.469 63.6839C196.031 62.2256 194.938 60.4756 194.188 58.4339C193.438 56.3714 193.062 54.0277 193.062 51.4027C193.062 48.986 193.406 46.7673 194.094 44.7464C194.802 42.7048 195.812 40.9443 197.125 39.4652C198.438 37.9652 200.052 36.7985 201.969 35.9652C203.906 35.1318 206.094 34.7152 208.531 34.7152C210.906 34.7152 213 35.1423 214.812 35.9964C216.625 36.8506 218.094 38.0277 219.219 39.5277C220.365 41.0277 221.219 42.7673 221.781 44.7464C222.344 46.7048 222.625 48.861 222.625 51.2152C222.625 51.6318 222.615 51.9443 222.594 52.1527C222.573 52.361 222.552 52.6214 222.531 52.9339C222.51 53.2464 222.479 53.611 222.438 54.0277H201.125C201.333 56.5277 202.302 58.4756 204.031 59.8714C205.781 61.2673 207.948 61.9652 210.531 61.9652C213.448 61.9652 216.729 60.9027 220.375 58.7777ZM214.812 48.3402C214.771 46.9235 214.51 45.6214 214.031 44.4339C213.573 43.2464 212.854 42.2881 211.875 41.5589C210.917 40.8298 209.719 40.4652 208.281 40.4652C206.802 40.4652 205.531 40.8298 204.469 41.5589C203.427 42.2673 202.615 43.2152 202.031 44.4027C201.469 45.5902 201.125 46.9027 201 48.3402H214.812Z" fill="white"/>
<mask id="mask0_23_142" style="mask-type:alpha" maskUnits="userSpaceOnUse" x="42" y="0" width="253" height="89">
<rect x="42.3728" width="251.686" height="88.2468" rx="9" fill="url(#paint1_linear_23_142)"/>
</mask>
<g mask="url(#mask0_23_142)">
<ellipse cx="168" cy="3.5" rx="138" ry="37.5" fill="url(#paint2_radial_23_142)" fill-opacity="0.6"/>
</g>
<defs>
<linearGradient id="paint0_linear_23_142" x1="168.216" y1="0.246826" x2="168.216" y2="88.4937" gradientUnits="userSpaceOnUse">
<stop stop-color="#1C0FB5"/>
<stop offset="1" stop-color="#01002D"/>
</linearGradient>
<linearGradient id="paint1_linear_23_142" x1="168.216" y1="0" x2="168.216" y2="88.2468" gradientUnits="userSpaceOnUse">
<stop stop-color="#3120F5"/>
<stop offset="1" stop-color="#070643"/>
</linearGradient>
<radialGradient id="paint2_radial_23_142" cx="0" cy="0" r="1" gradientUnits="userSpaceOnUse" gradientTransform="translate(168 -10.5) rotate(90) scale(51.5 285.796)">
<stop stop-color="white" stop-opacity="0.8"/>
<stop offset="1" stop-color="white" stop-opacity="0.04"/>
</radialGradient>
</defs>
</svg>
