<svg width="253" height="89" viewBox="0 0 253 89" fill="none" xmlns="http://www.w3.org/2000/svg">
<rect x="0.372803" width="251.686" height="88.2468" rx="9" fill="url(#paint0_linear_23_145)"/>
<mask id="mask0_23_145" style="mask-type:alpha" maskUnits="userSpaceOnUse" x="0" y="0" width="253" height="89">
<rect x="0.372803" width="251.686" height="88.2468" rx="9" fill="url(#paint1_linear_23_145)"/>
</mask>
<g mask="url(#mask0_23_145)">
<path d="M35.3125 66.9683V24.2808H45.0312C47.6771 24.2808 50.0417 24.3642 52.125 24.5308C54.2083 24.6975 56.2917 25.0829 58.375 25.6871C60.4583 26.2912 62.3438 27.1871 64.0312 28.3746C65.4479 29.3329 66.6562 30.4683 67.6562 31.7808C68.6562 33.0933 69.4375 34.4683 70 35.9058C70.5833 37.3225 71.0104 38.885 71.2812 40.5933C71.5729 42.2808 71.7188 43.9892 71.7188 45.7183C71.7188 49.3017 71.0938 52.6037 69.8438 55.6246C68.6146 58.6454 66.6562 61.1246 63.9688 63.0621C62.5521 64.1037 60.9479 64.9162 59.1562 65.4996C57.3646 66.0829 55.5208 66.4787 53.625 66.6871C51.7292 66.8746 49.7396 66.9683 47.6562 66.9683H35.3125ZM43.9375 60.3746C44.4167 60.3746 44.8125 60.385 45.125 60.4058C45.4375 60.4058 45.7708 60.4162 46.125 60.4371C48.6458 60.4371 50.9062 60.135 52.9062 59.5308C54.9062 58.9058 56.6146 57.9787 58.0312 56.7496C59.4688 55.4996 60.5729 53.9371 61.3438 52.0621C62.1146 50.1662 62.5 47.9475 62.5 45.4058C62.5 42.8642 61.9479 40.4683 60.8438 38.2183C59.7396 35.9683 58.1562 34.2496 56.0938 33.0621C55.2396 32.5412 54.3333 32.1454 53.375 31.8746C52.4375 31.5829 51.4375 31.3746 50.375 31.2496C49.3333 31.1246 48.1667 31.0412 46.875 30.9996C45.6042 30.9579 44.625 30.9371 43.9375 30.9371V60.3746ZM87.1562 66.9683H78.9688V35.2808H87.1562V66.9683ZM87.2812 29.5308H78.8438V21.7808H87.2812V29.5308ZM94.0625 66.1246L94.4375 59.2183C97.3542 60.7183 100.042 61.4683 102.5 61.4683C103.854 61.4683 105.135 61.1767 106.344 60.5933C107.552 60.01 108.156 59.1037 108.156 57.8746C108.156 56.8121 107.292 55.9058 105.562 55.1558C103.833 54.4058 102.094 53.6662 100.344 52.9371C98.6146 52.2079 97.1146 51.1871 95.8438 49.8746C94.5729 48.5621 93.9375 46.7287 93.9375 44.3746C93.9375 42.1246 94.5938 40.2808 95.9062 38.8433C97.2396 37.4058 98.9271 36.3642 100.969 35.7183C103.01 35.0517 105.125 34.7183 107.312 34.7183C109.625 34.7183 112.229 35.1246 115.125 35.9371L114.531 42.0621C111.99 41.2496 109.75 40.8433 107.812 40.8433C106.396 40.8433 105.083 41.0829 103.875 41.5621C102.667 42.0412 102.062 42.8746 102.062 44.0621C102.062 45.0829 102.885 45.9371 104.531 46.6246C106.198 47.2912 107.938 47.9683 109.75 48.6558C111.583 49.3225 113.146 50.3329 114.438 51.6871C115.75 53.0204 116.406 54.9371 116.406 57.4371C116.406 59.7079 115.771 61.6037 114.5 63.1246C113.25 64.6454 111.625 65.76 109.625 66.4683C107.625 67.1767 105.51 67.5308 103.281 67.5308C100.74 67.5308 97.6667 67.0621 94.0625 66.1246ZM131.156 66.9683H122.969V20.8746H131.156V66.9683ZM147.656 66.9683H139.469V35.2808H147.656V66.9683ZM147.781 29.5308H139.344V21.7808H147.781V29.5308ZM185.344 66.9683H174.969L166.781 55.3746C165.802 53.9787 164.865 52.4683 163.969 50.8433C164.094 52.1767 164.156 53.5621 164.156 54.9996V66.9683H155.969V20.8746H164.156V42.2496C164.156 44.3329 164.094 46.4267 163.969 48.5308C164.99 46.9683 165.885 45.7079 166.656 44.7496L174.281 35.2808H183.812L172.031 49.4371L185.344 66.9683ZM215.188 58.5308L215.312 65.6246C211.958 67.0829 208.333 67.8121 204.438 67.8121C201.833 67.8121 199.51 67.4475 197.469 66.7183C195.448 65.9683 193.719 64.8746 192.281 63.4371C190.844 61.9787 189.75 60.2287 189 58.1871C188.25 56.1246 187.875 53.7808 187.875 51.1558C187.875 48.7392 188.219 46.5204 188.906 44.4996C189.615 42.4579 190.625 40.6975 191.938 39.2183C193.25 37.7183 194.865 36.5517 196.781 35.7183C198.719 34.885 200.906 34.4683 203.344 34.4683C205.719 34.4683 207.812 34.8954 209.625 35.7496C211.438 36.6037 212.906 37.7808 214.031 39.2808C215.177 40.7808 216.031 42.5204 216.594 44.4996C217.156 46.4579 217.438 48.6142 217.438 50.9683C217.438 51.385 217.427 51.6975 217.406 51.9058C217.385 52.1142 217.365 52.3746 217.344 52.6871C217.323 52.9996 217.292 53.3642 217.25 53.7808H195.938C196.146 56.2808 197.115 58.2287 198.844 59.6246C200.594 61.0204 202.76 61.7183 205.344 61.7183C208.26 61.7183 211.542 60.6558 215.188 58.5308ZM209.625 48.0933C209.583 46.6767 209.323 45.3746 208.844 44.1871C208.385 42.9996 207.667 42.0412 206.688 41.3121C205.729 40.5829 204.531 40.2183 203.094 40.2183C201.615 40.2183 200.344 40.5829 199.281 41.3121C198.24 42.0204 197.427 42.9683 196.844 44.1558C196.281 45.3433 195.938 46.6558 195.812 48.0933H209.625Z" fill="white"/>
<ellipse cx="123" cy="3.5" rx="138" ry="37.5" fill="url(#paint2_radial_23_145)" fill-opacity="0.6"/>
</g>
<defs>
<linearGradient id="paint0_linear_23_145" x1="126.216" y1="0" x2="126.216" y2="88.2468" gradientUnits="userSpaceOnUse">
<stop stop-color="#1C0FB5"/>
<stop offset="1" stop-color="#01002D"/>
</linearGradient>
<linearGradient id="paint1_linear_23_145" x1="126.216" y1="0" x2="126.216" y2="88.2468" gradientUnits="userSpaceOnUse">
<stop stop-color="#3120F5"/>
<stop offset="1" stop-color="#070643"/>
</linearGradient>
<radialGradient id="paint2_radial_23_145" cx="0" cy="0" r="1" gradientUnits="userSpaceOnUse" gradientTransform="translate(123 -10.5) rotate(90) scale(51.5 285.796)">
<stop stop-color="white" stop-opacity="0.8"/>
<stop offset="1" stop-color="white" stop-opacity="0.04"/>
</radialGradient>
</defs>
</svg>
