<svg width="394" height="82" viewBox="0 0 394 82" fill="none" xmlns="http://www.w3.org/2000/svg">
<rect width="394" height="82" rx="9" fill="url(#paint0_linear_1_8)"/>
<mask id="mask0_1_8" style="mask-type:alpha" maskUnits="userSpaceOnUse" x="0" y="0" width="394" height="82">
<rect width="394" height="82" rx="9" fill="url(#paint1_linear_1_8)"/>
</mask>
<g mask="url(#mask0_1_8)">
<ellipse cx="196.5" cy="3" rx="215.5" ry="35" fill="url(#paint2_radial_1_8)" fill-opacity="0.6"/>
<path d="M15.8281 39.125V53H9.3125V20.9844H27.0781V26.2578H15.7812V33.8516H26.6328V39.125H15.8281ZM51.9922 53H46.5078L46.4141 49.4375C45.6797 50.7031 44.6484 51.6797 43.3203 52.3672C42.0078 53.0391 40.5781 53.375 39.0312 53.375C37.4531 53.375 36.0391 53.1016 34.7891 52.5547C33.5547 52.0078 32.5781 51.1797 31.8594 50.0703C31.1406 48.9453 30.7812 47.5859 30.7812 45.9922C30.7812 43.0234 31.9453 40.9922 34.2734 39.8984C36.6016 38.8047 39.4375 38.2578 42.7812 38.2578C43.2656 38.2578 43.5781 38.2656 43.7188 38.2812C43.8594 38.2812 44.1719 38.2969 44.6562 38.3281C45.1406 38.3438 45.6328 38.3672 46.1328 38.3984C46.1328 36.6328 45.7031 35.3203 44.8438 34.4609C43.9844 33.6016 42.6562 33.1719 40.8594 33.1719C38.1406 33.1719 35.6875 34.0391 33.5 35.7734L33.3125 30.4297C35.8594 29.3516 38.6172 28.8125 41.5859 28.8125C42.6953 28.8125 43.7969 28.9219 44.8906 29.1406C45.9844 29.3594 46.9922 29.7266 47.9141 30.2422C48.8516 30.7422 49.625 31.4141 50.2344 32.2578C50.8594 33.1016 51.2656 34.0703 51.4531 35.1641C51.6562 36.2422 51.7578 37.5312 51.7578 39.0312C51.7578 40.5781 51.7578 42.1328 51.7578 43.6953C51.7734 45.2578 51.7891 46.6875 51.8047 47.9844C51.8359 49.2656 51.8984 50.9375 51.9922 53ZM46.2266 42.1953C46.0703 42.1641 45.8281 42.1484 45.5 42.1484H44.75C43.4062 42.1484 42.1719 42.2266 41.0469 42.3828C39.9375 42.5234 38.9609 42.8984 38.1172 43.5078C37.2891 44.1016 36.875 44.9766 36.875 46.1328C36.875 47.0703 37.2422 47.8203 37.9766 48.3828C38.7266 48.9297 39.5938 49.2031 40.5781 49.2031C42.4375 49.2031 43.8438 48.5156 44.7969 47.1406C45.75 45.7656 46.2266 44.1172 46.2266 42.1953ZM63.8516 29.2344L63.9922 32.8438C64.7578 31.5938 65.7891 30.6172 67.0859 29.9141C68.3984 29.2109 69.8125 28.8594 71.3281 28.8594C72.9844 28.8594 74.3516 29.2031 75.4297 29.8906C76.5234 30.5625 77.3984 31.625 78.0547 33.0781C78.8516 31.7188 79.9062 30.6797 81.2188 29.9609C82.5469 29.2266 84.0078 28.8594 85.6016 28.8594C88.5547 28.8594 90.5469 29.7969 91.5781 31.6719C92.6094 33.5312 93.125 36.0469 93.125 39.2188V53H86.9844V41.4688V40.5312C86.9844 38.6094 86.7578 37.0312 86.3047 35.7969C85.8672 34.5625 84.8984 33.9453 83.3984 33.9453C80.2891 33.9453 78.7344 36.6328 78.7344 42.0078V53H72.5938V40.8125V39.125C72.5938 37.75 72.3281 36.5469 71.7969 35.5156C71.2656 34.4688 70.3438 33.9453 69.0312 33.9453C67.3281 33.9453 66.1172 34.6719 65.3984 36.125C64.6797 37.5625 64.3203 39.2188 64.3203 41.0938V53H58.1797V35.0469C58.1797 32.875 58.1172 30.9375 57.9922 29.2344H63.8516ZM105.289 53H99.1484V29.2344H105.289V53ZM105.383 24.9219H99.0547V19.1094H105.383V24.9219ZM117.617 53H111.477V18.4297H117.617V53ZM122.75 62.3984L123.172 57.7578C124.078 58.1016 124.945 58.2734 125.773 58.2734C127.023 58.2734 128 57.9141 128.703 57.1953C129.406 56.4766 130.016 55.4766 130.531 54.1953L121.156 29.1875H127.977L132.875 43.6953C132.984 44.0391 133.125 44.4844 133.297 45.0312C133.469 45.5625 133.664 46.1875 133.883 46.9062C134.117 46.0625 134.328 45.3047 134.516 44.6328C134.719 43.9453 134.891 43.3906 135.031 42.9688L139.648 29.1875H145.883L136.438 54.6406C135.719 56.5 134.992 58 134.258 59.1406C133.539 60.2969 132.586 61.2344 131.398 61.9531C130.227 62.6719 128.781 63.0312 127.062 63.0312C125.906 63.0312 124.469 62.8203 122.75 62.3984ZM163.625 53V20.9844H173.844C177.016 20.9844 179.68 21.5781 181.836 22.7656C183.992 23.9375 185.07 26.0312 185.07 29.0469C185.07 31.1094 184.539 32.7266 183.477 33.8984C182.43 35.0547 180.867 35.8516 178.789 36.2891C179.82 36.3984 180.797 36.6641 181.719 37.0859C182.656 37.4922 183.461 38.0391 184.133 38.7266C184.805 39.3984 185.32 40.1875 185.68 41.0938C186.039 41.9844 186.219 43.0078 186.219 44.1641C186.219 45.1484 186.062 46.1016 185.75 47.0234C185.438 47.9453 184.969 48.7812 184.344 49.5312C183.719 50.2656 182.969 50.8906 182.094 51.4062C180.891 52.125 179.633 52.5703 178.32 52.7422C177.023 52.9141 175.359 53 173.328 53H163.625ZM170.094 48.1016H173.211C175.055 48.1016 176.609 47.75 177.875 47.0469C179.156 46.3281 179.797 45.125 179.797 43.4375C179.797 41.7969 179.211 40.6094 178.039 39.875C176.867 39.125 175.406 38.75 173.656 38.75H170.094V48.1016ZM170.094 33.9453H173.164C174.742 33.9453 176.047 33.6484 177.078 33.0547C178.125 32.4609 178.648 31.4453 178.648 30.0078C178.648 28.5234 178.164 27.4766 177.195 26.8672C176.227 26.2422 174.953 25.9297 173.375 25.9297H170.094V33.9453ZM211.602 53H206.117L206.023 49.4375C205.289 50.7031 204.258 51.6797 202.93 52.3672C201.617 53.0391 200.188 53.375 198.641 53.375C197.062 53.375 195.648 53.1016 194.398 52.5547C193.164 52.0078 192.188 51.1797 191.469 50.0703C190.75 48.9453 190.391 47.5859 190.391 45.9922C190.391 43.0234 191.555 40.9922 193.883 39.8984C196.211 38.8047 199.047 38.2578 202.391 38.2578C202.875 38.2578 203.188 38.2656 203.328 38.2812C203.469 38.2812 203.781 38.2969 204.266 38.3281C204.75 38.3438 205.242 38.3672 205.742 38.3984C205.742 36.6328 205.312 35.3203 204.453 34.4609C203.594 33.6016 202.266 33.1719 200.469 33.1719C197.75 33.1719 195.297 34.0391 193.109 35.7734L192.922 30.4297C195.469 29.3516 198.227 28.8125 201.195 28.8125C202.305 28.8125 203.406 28.9219 204.5 29.1406C205.594 29.3594 206.602 29.7266 207.523 30.2422C208.461 30.7422 209.234 31.4141 209.844 32.2578C210.469 33.1016 210.875 34.0703 211.062 35.1641C211.266 36.2422 211.367 37.5312 211.367 39.0312C211.367 40.5781 211.367 42.1328 211.367 43.6953C211.383 45.2578 211.398 46.6875 211.414 47.9844C211.445 49.2656 211.508 50.9375 211.602 53ZM205.836 42.1953C205.68 42.1641 205.438 42.1484 205.109 42.1484H204.359C203.016 42.1484 201.781 42.2266 200.656 42.3828C199.547 42.5234 198.57 42.8984 197.727 43.5078C196.898 44.1016 196.484 44.9766 196.484 46.1328C196.484 47.0703 196.852 47.8203 197.586 48.3828C198.336 48.9297 199.203 49.2031 200.188 49.2031C202.047 49.2031 203.453 48.5156 204.406 47.1406C205.359 45.7656 205.836 44.1172 205.836 42.1953ZM223.93 53H217.789V36.3828C217.711 32.4297 217.648 30.0469 217.602 29.2344H223.18L223.32 35.2344C223.852 33.3594 224.656 31.8594 225.734 30.7344C226.828 29.6094 228.25 29.0469 230 29.0469C230.531 29.0469 231.133 29.125 231.805 29.2812V35.0469C230.992 34.8281 230.273 34.7188 229.648 34.7188C228.195 34.7188 227.039 35.1016 226.18 35.8672C225.32 36.6328 224.727 37.6172 224.398 38.8203C224.086 40.0078 223.93 41.3125 223.93 42.7344V43.2031V53ZM241.32 53H235.555V18.4297H241.695V29C241.695 30.7031 241.617 32.1719 241.461 33.4062C242.273 31.8438 243.312 30.6875 244.578 29.9375C245.844 29.1875 247.383 28.8125 249.195 28.8125C250.852 28.8125 252.281 29.1328 253.484 29.7734C254.703 30.3984 255.695 31.2656 256.461 32.375C257.227 33.4844 257.797 34.7422 258.172 36.1484C258.547 37.5391 258.734 39.0312 258.734 40.625C258.734 42.3125 258.562 43.9141 258.219 45.4297C257.875 46.9297 257.328 48.2734 256.578 49.4609C255.828 50.6328 254.812 51.5781 253.531 52.2969C252.25 53.0156 250.719 53.375 248.938 53.375C245.422 53.375 242.93 52 241.461 49.25L241.32 53ZM252.359 41.1406C252.359 39.2344 251.945 37.5625 251.117 36.125C250.305 34.6719 249.023 33.9453 247.273 33.9453C245.43 33.9453 244.047 34.6953 243.125 36.1953C242.203 37.6953 241.742 39.4062 241.742 41.3281C241.742 43.25 242.195 44.9375 243.102 46.3906C244.008 47.8281 245.367 48.5469 247.18 48.5469C248.367 48.5469 249.344 48.1641 250.109 47.3984C250.891 46.6328 251.461 45.6797 251.82 44.5391C252.18 43.3828 252.359 42.25 252.359 41.1406ZM282.781 46.6719L282.875 51.9922C280.359 53.0859 277.641 53.6328 274.719 53.6328C272.766 53.6328 271.023 53.3594 269.492 52.8125C267.977 52.25 266.68 51.4297 265.602 50.3516C264.523 49.2578 263.703 47.9453 263.141 46.4141C262.578 44.8672 262.297 43.1094 262.297 41.1406C262.297 39.3281 262.555 37.6641 263.07 36.1484C263.602 34.6172 264.359 33.2969 265.344 32.1875C266.328 31.0625 267.539 30.1875 268.977 29.5625C270.43 28.9375 272.07 28.625 273.898 28.625C275.68 28.625 277.25 28.9453 278.609 29.5859C279.969 30.2266 281.07 31.1094 281.914 32.2344C282.773 33.3594 283.414 34.6641 283.836 36.1484C284.258 37.6172 284.469 39.2344 284.469 41C284.469 41.3125 284.461 41.5469 284.445 41.7031C284.43 41.8594 284.414 42.0547 284.398 42.2891C284.383 42.5234 284.359 42.7969 284.328 43.1094H268.344C268.5 44.9844 269.227 46.4453 270.523 47.4922C271.836 48.5391 273.461 49.0625 275.398 49.0625C277.586 49.0625 280.047 48.2656 282.781 46.6719ZM278.609 38.8438C278.578 37.7812 278.383 36.8047 278.023 35.9141C277.68 35.0234 277.141 34.3047 276.406 33.7578C275.688 33.2109 274.789 32.9375 273.711 32.9375C272.602 32.9375 271.648 33.2109 270.852 33.7578C270.07 34.2891 269.461 35 269.023 35.8906C268.602 36.7812 268.344 37.7656 268.25 38.8438H278.609ZM311.211 62.75H305.07V53.2812C305.07 51.7031 305.133 50.2969 305.258 49.0625C304.648 50.4375 303.703 51.5 302.422 52.25C301.141 53 299.688 53.375 298.062 53.375C294.703 53.375 292.188 52.1797 290.516 49.7891C288.859 47.3984 288.031 44.4375 288.031 40.9062C288.031 38.7969 288.383 36.8203 289.086 34.9766C289.805 33.1172 290.898 31.625 292.367 30.5C293.852 29.375 295.688 28.8125 297.875 28.8125C299.531 28.8125 301 29.1641 302.281 29.8672C303.562 30.5703 304.555 31.6094 305.258 32.9844L305.398 29.1875H311.211V62.75ZM305.117 41.3281C305.117 40.1562 304.914 39 304.508 37.8594C304.117 36.7031 303.5 35.7656 302.656 35.0469C301.812 34.3125 300.773 33.9453 299.539 33.9453C297.742 33.9453 296.438 34.6719 295.625 36.125C294.812 37.5625 294.406 39.2344 294.406 41.1406C294.406 43.2031 294.82 44.9531 295.648 46.3906C296.492 47.8281 297.875 48.5469 299.797 48.5469C301.531 48.5469 302.852 47.8125 303.758 46.3438C304.664 44.8594 305.117 43.1875 305.117 41.3281ZM338.75 29.2344V43.7422C338.781 44.4141 338.812 45.4531 338.844 46.8594C338.891 48.2656 338.93 49.3906 338.961 50.2344C338.992 51.0781 339.039 52 339.102 53H333.289L333.102 49.3438C332.555 50.2031 331.891 50.9297 331.109 51.5234C330.344 52.1172 329.477 52.5781 328.508 52.9062C327.539 53.2188 326.57 53.375 325.602 53.375C323.398 53.375 321.68 52.9219 320.445 52.0156C319.211 51.1094 318.359 49.8672 317.891 48.2891C317.438 46.7109 317.211 44.8281 317.211 42.6406V29.2344H323.352V40.6719C323.352 42.1562 323.422 43.4141 323.562 44.4453C323.719 45.4609 324.117 46.3516 324.758 47.1172C325.398 47.8672 326.367 48.2422 327.664 48.2422C329.523 48.2422 330.812 47.4609 331.531 45.8984C332.25 44.3203 332.609 42.4766 332.609 40.3672V29.2344H338.75ZM364.391 46.6719L364.484 51.9922C361.969 53.0859 359.25 53.6328 356.328 53.6328C354.375 53.6328 352.633 53.3594 351.102 52.8125C349.586 52.25 348.289 51.4297 347.211 50.3516C346.133 49.2578 345.312 47.9453 344.75 46.4141C344.188 44.8672 343.906 43.1094 343.906 41.1406C343.906 39.3281 344.164 37.6641 344.68 36.1484C345.211 34.6172 345.969 33.2969 346.953 32.1875C347.938 31.0625 349.148 30.1875 350.586 29.5625C352.039 28.9375 353.68 28.625 355.508 28.625C357.289 28.625 358.859 28.9453 360.219 29.5859C361.578 30.2266 362.68 31.1094 363.523 32.2344C364.383 33.3594 365.023 34.6641 365.445 36.1484C365.867 37.6172 366.078 39.2344 366.078 41C366.078 41.3125 366.07 41.5469 366.055 41.7031C366.039 41.8594 366.023 42.0547 366.008 42.2891C365.992 42.5234 365.969 42.7969 365.938 43.1094H349.953C350.109 44.9844 350.836 46.4453 352.133 47.4922C353.445 48.5391 355.07 49.0625 357.008 49.0625C359.195 49.0625 361.656 48.2656 364.391 46.6719ZM360.219 38.8438C360.188 37.7812 359.992 36.8047 359.633 35.9141C359.289 35.0234 358.75 34.3047 358.016 33.7578C357.297 33.2109 356.398 32.9375 355.32 32.9375C354.211 32.9375 353.258 33.2109 352.461 33.7578C351.68 34.2891 351.07 35 350.633 35.8906C350.211 36.7812 349.953 37.7656 349.859 38.8438H360.219ZM369.922 52.3672L370.203 47.1875C372.391 48.3125 374.406 48.875 376.25 48.875C377.266 48.875 378.227 48.6562 379.133 48.2188C380.039 47.7812 380.492 47.1016 380.492 46.1797C380.492 45.3828 379.844 44.7031 378.547 44.1406C377.25 43.5781 375.945 43.0234 374.633 42.4766C373.336 41.9297 372.211 41.1641 371.258 40.1797C370.305 39.1953 369.828 37.8203 369.828 36.0547C369.828 34.3672 370.32 32.9844 371.305 31.9062C372.305 30.8281 373.57 30.0469 375.102 29.5625C376.633 29.0625 378.219 28.8125 379.859 28.8125C381.594 28.8125 383.547 29.1172 385.719 29.7266L385.273 34.3203C383.367 33.7109 381.688 33.4062 380.234 33.4062C379.172 33.4062 378.188 33.5859 377.281 33.9453C376.375 34.3047 375.922 34.9297 375.922 35.8203C375.922 36.5859 376.539 37.2266 377.773 37.7422C379.023 38.2422 380.328 38.75 381.688 39.2656C383.062 39.7656 384.234 40.5234 385.203 41.5391C386.188 42.5391 386.68 43.9766 386.68 45.8516C386.68 47.5547 386.203 48.9766 385.25 50.1172C384.312 51.2578 383.094 52.0938 381.594 52.625C380.094 53.1562 378.508 53.4219 376.836 53.4219C374.93 53.4219 372.625 53.0703 369.922 52.3672Z" fill="white"/>
</g>
<defs>
<linearGradient id="paint0_linear_1_8" x1="197" y1="0" x2="197" y2="82" gradientUnits="userSpaceOnUse">
<stop stop-color="#1C0FB5"/>
<stop offset="1" stop-color="#01002D"/>
</linearGradient>
<linearGradient id="paint1_linear_1_8" x1="197" y1="0" x2="197" y2="82" gradientUnits="userSpaceOnUse">
<stop stop-color="#3120F5"/>
<stop offset="1" stop-color="#070643"/>
</linearGradient>
<radialGradient id="paint2_radial_1_8" cx="0" cy="0" r="1" gradientUnits="userSpaceOnUse" gradientTransform="translate(196.5 -10.0667) rotate(90) scale(48.0667 446.297)">
<stop stop-color="white" stop-opacity="0.8"/>
<stop offset="1" stop-color="white" stop-opacity="0.04"/>
</radialGradient>
</defs>
</svg>
