<svg width="319" height="82" viewBox="0 0 319 82" fill="none" xmlns="http://www.w3.org/2000/svg">
<rect width="319" height="82" rx="9" fill="url(#paint0_linear_16_53)"/>
<mask id="mask0_16_53" style="mask-type:alpha" maskUnits="userSpaceOnUse" x="0" y="0" width="319" height="82">
<rect width="319" height="82" rx="9" fill="url(#paint1_linear_16_53)"/>
</mask>
<g mask="url(#mask0_16_53)">
<ellipse cx="155.5" cy="3" rx="174.5" ry="35" fill="url(#paint2_radial_16_53)" fill-opacity="0.6"/>
<path d="M45.2109 47.7734V53H26.25V20.9844H32.7188V47.7734H45.2109ZM70.5 29.2344V43.7422C70.5312 44.4141 70.5625 45.4531 70.5938 46.8594C70.6406 48.2656 70.6797 49.3906 70.7109 50.2344C70.7422 51.0781 70.7891 52 70.8516 53H65.0391L64.8516 49.3438C64.3047 50.2031 63.6406 50.9297 62.8594 51.5234C62.0938 52.1172 61.2266 52.5781 60.2578 52.9062C59.2891 53.2188 58.3203 53.375 57.3516 53.375C55.1484 53.375 53.4297 52.9219 52.1953 52.0156C50.9609 51.1094 50.1094 49.8672 49.6406 48.2891C49.1875 46.7109 48.9609 44.8281 48.9609 42.6406V29.2344H55.1016V40.6719C55.1016 42.1562 55.1719 43.4141 55.3125 44.4453C55.4688 45.4609 55.8672 46.3516 56.5078 47.1172C57.1484 47.8672 58.1172 48.2422 59.4141 48.2422C61.2734 48.2422 62.5625 47.4609 63.2812 45.8984C64 44.3203 64.3594 42.4766 64.3594 40.3672V29.2344H70.5ZM82.8516 29.2344L82.9922 33.0312C84.8984 30.25 87.5703 28.8594 91.0078 28.8594C94.1953 28.8594 96.3438 29.8047 97.4531 31.6953C98.5625 33.5703 99.1172 36.2109 99.1172 39.6172V53H92.9766V41.0469C92.9766 38.9375 92.7031 37.2266 92.1562 35.9141C91.625 34.6016 90.4609 33.9453 88.6641 33.9453C86.7422 33.9453 85.3906 34.7188 84.6094 36.2656C83.8281 37.7969 83.4375 39.6172 83.4375 41.7266V53H77.2734V37.8828C77.2734 34.5234 77.1953 31.6406 77.0391 29.2344H82.8516ZM121.195 47.0938L121.547 52.2734C119.484 52.8828 117.641 53.1875 116.016 53.1875C114.203 53.1875 112.539 52.9141 111.023 52.3672C109.508 51.8047 108.203 50.9922 107.109 49.9297C106.031 48.8672 105.203 47.5781 104.625 46.0625C104.062 44.5312 103.781 42.8438 103.781 41C103.781 38.6562 104.281 36.5781 105.281 34.7656C106.297 32.9531 107.719 31.5469 109.547 30.5469C111.391 29.5469 113.469 29.0469 115.781 29.0469C117.5 29.0469 119.242 29.3047 121.008 29.8203L120.539 34.7656C119.133 34.2188 117.867 33.9453 116.742 33.9453C115.461 33.9453 114.312 34.2656 113.297 34.9062C112.281 35.5312 111.5 36.375 110.953 37.4375C110.422 38.4844 110.156 39.6562 110.156 40.9531C110.156 43.0938 110.781 44.8125 112.031 46.1094C113.281 47.4062 114.961 48.0547 117.07 48.0547C118.414 48.0547 119.789 47.7344 121.195 47.0938ZM147.68 53H141.539V41.4688C141.539 39.1875 141.289 37.3672 140.789 36.0078C140.305 34.6328 139.148 33.9453 137.32 33.9453C135.352 33.9453 133.969 34.7578 133.172 36.3828C132.375 37.9922 131.977 39.8828 131.977 42.0547V43.25V53H125.836V18.4297H131.977V32.6094C132.867 31.3281 133.938 30.375 135.188 29.75C136.438 29.125 137.867 28.8125 139.477 28.8125C141.148 28.8125 142.523 29.0859 143.602 29.6328C144.695 30.1641 145.531 30.8906 146.109 31.8125C146.703 32.7344 147.109 33.8125 147.328 35.0469C147.562 36.2656 147.68 37.7031 147.68 39.3594V53ZM204.094 53H197.625V34.0859C197.719 31.2109 197.859 28.3281 198.047 25.4375H197.859C197.547 26.7031 197.227 27.8125 196.898 28.7656L188.742 53H182.789L175.875 32.9844C175.016 30.4844 174.281 27.9688 173.672 25.4375H173.484C173.797 28.5312 173.953 31.3359 173.953 33.8516V53H167.812V20.9844H178.031L183.844 37.7891C184.75 40.4922 185.438 43.1172 185.906 45.6641C186.188 44.3203 186.453 43.1562 186.703 42.1719C186.969 41.1719 187.266 40.1719 187.594 39.1719L193.734 20.9844H204.094V53ZM230.156 46.6719L230.25 51.9922C227.734 53.0859 225.016 53.6328 222.094 53.6328C220.141 53.6328 218.398 53.3594 216.867 52.8125C215.352 52.25 214.055 51.4297 212.977 50.3516C211.898 49.2578 211.078 47.9453 210.516 46.4141C209.953 44.8672 209.672 43.1094 209.672 41.1406C209.672 39.3281 209.93 37.6641 210.445 36.1484C210.977 34.6172 211.734 33.2969 212.719 32.1875C213.703 31.0625 214.914 30.1875 216.352 29.5625C217.805 28.9375 219.445 28.625 221.273 28.625C223.055 28.625 224.625 28.9453 225.984 29.5859C227.344 30.2266 228.445 31.1094 229.289 32.2344C230.148 33.3594 230.789 34.6641 231.211 36.1484C231.633 37.6172 231.844 39.2344 231.844 41C231.844 41.3125 231.836 41.5469 231.82 41.7031C231.805 41.8594 231.789 42.0547 231.773 42.2891C231.758 42.5234 231.734 42.7969 231.703 43.1094H215.719C215.875 44.9844 216.602 46.4453 217.898 47.4922C219.211 48.5391 220.836 49.0625 222.773 49.0625C224.961 49.0625 227.422 48.2656 230.156 46.6719ZM225.984 38.8438C225.953 37.7812 225.758 36.8047 225.398 35.9141C225.055 35.0234 224.516 34.3047 223.781 33.7578C223.062 33.2109 222.164 32.9375 221.086 32.9375C219.977 32.9375 219.023 33.2109 218.227 33.7578C217.445 34.2891 216.836 35 216.398 35.8906C215.977 36.7812 215.719 37.7656 215.625 38.8438H225.984ZM242.555 29.2344L242.695 33.0312C244.602 30.25 247.273 28.8594 250.711 28.8594C253.898 28.8594 256.047 29.8047 257.156 31.6953C258.266 33.5703 258.82 36.2109 258.82 39.6172V53H252.68V41.0469C252.68 38.9375 252.406 37.2266 251.859 35.9141C251.328 34.6016 250.164 33.9453 248.367 33.9453C246.445 33.9453 245.094 34.7188 244.312 36.2656C243.531 37.7969 243.141 39.6172 243.141 41.7266V53H236.977V37.8828C236.977 34.5234 236.898 31.6406 236.742 29.2344H242.555ZM286.172 29.2344V43.7422C286.203 44.4141 286.234 45.4531 286.266 46.8594C286.312 48.2656 286.352 49.3906 286.383 50.2344C286.414 51.0781 286.461 52 286.523 53H280.711L280.523 49.3438C279.977 50.2031 279.312 50.9297 278.531 51.5234C277.766 52.1172 276.898 52.5781 275.93 52.9062C274.961 53.2188 273.992 53.375 273.023 53.375C270.82 53.375 269.102 52.9219 267.867 52.0156C266.633 51.1094 265.781 49.8672 265.312 48.2891C264.859 46.7109 264.633 44.8281 264.633 42.6406V29.2344H270.773V40.6719C270.773 42.1562 270.844 43.4141 270.984 44.4453C271.141 45.4609 271.539 46.3516 272.18 47.1172C272.82 47.8672 273.789 48.2422 275.086 48.2422C276.945 48.2422 278.234 47.4609 278.953 45.8984C279.672 44.3203 280.031 42.4766 280.031 40.3672V29.2344H286.172Z" fill="white"/>
</g>
<defs>
<linearGradient id="paint0_linear_16_53" x1="159.5" y1="0" x2="159.5" y2="82" gradientUnits="userSpaceOnUse">
<stop stop-color="#1C0FB5"/>
<stop offset="1" stop-color="#01002D"/>
</linearGradient>
<linearGradient id="paint1_linear_16_53" x1="159.5" y1="0" x2="159.5" y2="82" gradientUnits="userSpaceOnUse">
<stop stop-color="#3120F5"/>
<stop offset="1" stop-color="#070643"/>
</linearGradient>
<radialGradient id="paint2_radial_16_53" cx="0" cy="0" r="1" gradientUnits="userSpaceOnUse" gradientTransform="translate(155.5 -10.0667) rotate(90) scale(48.0667 361.387)">
<stop stop-color="white" stop-opacity="0.8"/>
<stop offset="1" stop-color="white" stop-opacity="0.04"/>
</radialGradient>
</defs>
</svg>
