<svg width="102" height="82" viewBox="0 0 102 82" fill="none" xmlns="http://www.w3.org/2000/svg">
<path d="M49.8867 73.9273C49.8867 73.9273 80.0817 44.2861 102 35.1477C92.1904 20.5028 43.4491 5.85794 43.4491 5.85794L12.6409 36.5536L42.6827 73.6929C44.3688 75.3332 47.5875 75.4503 49.8867 73.9273Z" fill="#94989B"/>
<g filter="url(#filter0_d_1_32)">
<path d="M43.7557 67.835C43.7557 67.835 102.46 36.5536 95.1027 18.5111C78.7023 19.6827 47.281 2.5775 44.9819 0C35.7854 10.31 16.4728 18.1596 7.73614 27.0637C4.21082 30.6956 2.37153 33.2731 5.89684 37.3737L42.836 73.5758C40.9967 71.9356 41.6098 69.3581 43.7557 67.835Z" fill="#D0D0D0"/>
</g>
<path d="M76.4032 37.9595L32.8732 11.9502L34.0994 11.1301L77.9359 36.9051L76.4032 37.9595ZM31.3404 36.5536L15.7064 24.0176C23.2169 17.4567 29.3479 14.4106 29.3479 14.4106L47.1277 25.775L31.3404 36.5536ZM41.7631 61.6256L8.19598 30.227C9.11563 27.4152 12.1811 26.1264 12.1811 26.1264L47.8941 57.4079L41.7631 61.6256ZM51.1129 28.3525L45.7483 31.9844L65.2141 45.5748L71.3451 41.3571L51.1129 28.3525ZM40.3836 35.7335L35.019 39.3654L52.7989 54.0103L59.0831 49.7925L40.3836 35.7335ZM47.281 5.155L48.967 5.97511L46.3614 11.4816L52.1858 7.49818L53.8718 8.31829L45.4417 14.0591L43.7557 13.1218L46.3614 7.49818L40.6902 11.3644L39.3107 10.5443L47.281 5.155ZM60.7692 13.4733L55.8644 11.1301L54.0251 12.4189L58.47 14.6449L56.9373 15.6993L52.6456 13.4733L50.4998 14.9963L55.4046 17.691L53.8718 18.7454L47.4343 15.1135L55.8644 9.37272L62.6085 12.6532L60.7692 13.4733ZM65.5207 13.8248L61.6888 18.0425L60.4626 19.2141L62.1486 18.394L68.5862 15.3478L70.8853 16.5194L66.7469 20.8543L65.5207 22.0259L67.36 21.2058L74.4106 18.1596L76.863 19.3312L64.1412 24.3691L62.1486 23.1975L66.4403 18.7454L67.8198 17.3395L65.674 18.394L59.0831 21.4401L57.2439 20.3857L63.5281 12.7703L65.5207 13.8248ZM73.0311 25.5406C72.7246 25.8921 72.418 26.2436 72.418 26.4779C72.418 26.9466 72.8779 27.5323 73.7975 28.001C74.4106 28.3525 74.8704 28.5868 75.4835 28.7039C76.4032 28.9383 77.1695 28.8211 77.7826 28.4696C78.0892 28.2353 78.2425 28.001 78.0892 27.6495C77.9359 27.298 77.4761 26.9466 76.863 26.4779L75.7901 25.6578C74.7172 24.8377 74.2573 24.2519 73.9508 23.7833C73.6442 23.0803 73.9508 22.3774 74.8704 21.6744C75.7901 21.0886 76.863 20.7371 78.2425 20.7371C79.6219 20.7371 81.0014 21.0886 82.6874 21.7916C84.0669 22.3774 84.8333 23.1975 85.2931 24.0176C85.7529 24.8377 85.2931 25.6578 84.3735 26.4779L81.7678 25.1892C82.3809 24.7205 82.3809 24.2519 82.0743 23.7833C81.7678 23.4318 81.4612 23.1975 80.8481 22.846C80.235 22.4945 79.4687 22.3774 78.8556 22.2602C78.2425 22.2602 77.7826 22.3774 77.3228 22.6117C77.0163 22.846 76.863 23.0803 77.1695 23.4318C77.3228 23.6661 77.6294 24.0176 78.3957 24.4862L80.0818 25.8921C80.8481 26.4779 81.308 27.0637 81.4612 27.5323C81.7678 28.2353 81.4612 28.9383 80.5416 29.5241C79.6219 30.227 78.3957 30.4613 76.863 30.4613C75.3303 30.4613 73.9508 29.9927 72.418 29.0554C70.8853 28.2353 69.9656 27.298 69.8124 26.4779C69.5058 25.6578 69.9656 24.8377 71.0386 24.1347L73.0311 25.5406Z" fill="#94989B"/>
<defs>
<filter id="filter0_d_1_32" x="0" y="0" width="99.7406" height="81.5758" filterUnits="userSpaceOnUse" color-interpolation-filters="sRGB">
<feFlood flood-opacity="0" result="BackgroundImageFix"/>
<feColorMatrix in="SourceAlpha" type="matrix" values="0 0 0 0 0 0 0 0 0 0 0 0 0 0 0 0 0 0 127 0" result="hardAlpha"/>
<feOffset dy="4"/>
<feGaussianBlur stdDeviation="2"/>
<feComposite in2="hardAlpha" operator="out"/>
<feColorMatrix type="matrix" values="0 0 0 0 0 0 0 0 0 0 0 0 0 0 0 0 0 0 0.25 0"/>
<feBlend mode="normal" in2="BackgroundImageFix" result="effect1_dropShadow_1_32"/>
<feBlend mode="normal" in="SourceGraphic" in2="effect1_dropShadow_1_32" result="shape"/>
</filter>
</defs>
</svg>
